<svg width="579" height="560" viewBox="0 0 579 560" fill="none" xmlns="http://www.w3.org/2000/svg">
<g clip-path="url(#clip0_117_253)">
<path d="M598.479 -84C637.691 -84 669.479 -52.2122 669.479 -13V573C669.479 612.212 637.691 644 598.479 644H71C31.7879 644 6.44339e-07 612.212 0 573V559.915C0.993789 559.97 1.99527 560 3.00293 560C32.2947 560 56.04 536.254 56.04 506.962V53.0381C56.04 23.7462 32.2947 0.000253579 3.00293 0C1.99529 0 0.993771 0.0285262 0 0.0839844V-13C0 -52.2121 31.7879 -83.9998 71 -84H598.479Z" fill="white"/>
</g>
<defs>
<clipPath id="clip0_117_253">
<rect width="579" height="560" fill="white"/>
</clipPath>
</defs>
</svg>
